<svg xmlns="http://www.w3.org/2000/svg" width="20" height="19" viewBox="0 0 20 19">
    <g fill="none" fill-rule="evenodd">
        <path fill="#3DB0F5" d="M9.5 0c2.1 0 4.037.693 5.612 1.852l-.627.778A8.442 8.442 0 0 0 9.5 1C4.814 1 1 4.813 1 9.5 1 14.187 4.814 18 9.5 18c4.687 0 8.5-3.813 8.5-8.5a8.47 8.47 0 0 0-.45-2.709l.73-.906A9.439 9.439 0 0 1 19 9.5c0 5.238-4.262 9.5-9.5 9.5S0 14.738 0 9.5 4.262 0 9.5 0zm8.943 0L20 1.253l-9.982 12.375a.997.997 0 0 1-.709.37L9.241 14c-.254 0-.5-.096-.686-.271L3 8.518l1.37-1.457 4.77 4.474L18.442 0z"/>
    </g>
</svg>
